<mxfile host="app.diagrams.net" modified="2022-07-26T12:11:38.785Z" agent="5.0 (Windows NT 10.0; Win64; x64) AppleWebKit/537.36 (KHTML, like Gecko) Chrome/103.0.0.0 Safari/537.36" etag="eGnXPrZSSU-HheEll-AN" version="20.2.0" type="github">
  <diagram id="C5RBs43oDa-KdzZeNtuy" name="Page-1">
    <mxGraphModel dx="2062" dy="1154" grid="1" gridSize="10" guides="1" tooltips="1" connect="1" arrows="1" fold="1" page="1" pageScale="1" pageWidth="827" pageHeight="1169" math="0" shadow="0">
      <root>
        <mxCell id="WIyWlLk6GJQsqaUBKTNV-0" />
        <mxCell id="WIyWlLk6GJQsqaUBKTNV-1" parent="WIyWlLk6GJQsqaUBKTNV-0" />
        <mxCell id="WIyWlLk6GJQsqaUBKTNV-2" value="" style="rounded=0;html=1;jettySize=auto;orthogonalLoop=1;fontSize=11;endArrow=block;endFill=0;endSize=8;strokeWidth=1;shadow=0;labelBackgroundColor=none;edgeStyle=orthogonalEdgeStyle;" parent="WIyWlLk6GJQsqaUBKTNV-1" source="WIyWlLk6GJQsqaUBKTNV-3" edge="1">
          <mxGeometry relative="1" as="geometry">
            <mxPoint x="220" y="170" as="targetPoint" />
            <Array as="points">
              <mxPoint x="220" y="140" />
              <mxPoint x="220" y="140" />
            </Array>
          </mxGeometry>
        </mxCell>
        <mxCell id="WIyWlLk6GJQsqaUBKTNV-3" value="회원가입" style="rounded=1;whiteSpace=wrap;html=1;fontSize=12;glass=0;strokeWidth=1;shadow=0;" parent="WIyWlLk6GJQsqaUBKTNV-1" vertex="1">
          <mxGeometry x="160" y="80" width="120" height="40" as="geometry" />
        </mxCell>
        <mxCell id="vxsvwbx6QRZhMMIfGSdD-1" value="회원가입" style="rounded=1;whiteSpace=wrap;html=1;fontSize=12;glass=0;strokeWidth=1;shadow=0;" vertex="1" parent="WIyWlLk6GJQsqaUBKTNV-1">
          <mxGeometry x="160" y="80" width="120" height="40" as="geometry" />
        </mxCell>
        <mxCell id="vxsvwbx6QRZhMMIfGSdD-3" value="회원가입" style="rounded=1;whiteSpace=wrap;html=1;fontSize=12;glass=0;strokeWidth=1;shadow=0;" vertex="1" parent="WIyWlLk6GJQsqaUBKTNV-1">
          <mxGeometry x="160" y="80" width="120" height="40" as="geometry" />
        </mxCell>
        <mxCell id="vxsvwbx6QRZhMMIfGSdD-23" style="edgeStyle=orthogonalEdgeStyle;rounded=0;orthogonalLoop=1;jettySize=auto;html=1;exitX=0.75;exitY=1;exitDx=0;exitDy=0;fontSize=14;entryX=0.5;entryY=0;entryDx=0;entryDy=0;endArrow=block;endFill=0;" edge="1" parent="WIyWlLk6GJQsqaUBKTNV-1" source="vxsvwbx6QRZhMMIfGSdD-8" target="vxsvwbx6QRZhMMIfGSdD-19">
          <mxGeometry relative="1" as="geometry">
            <mxPoint x="249.90476190476193" y="150" as="targetPoint" />
            <Array as="points">
              <mxPoint x="220" y="120" />
              <mxPoint x="220" y="140" />
              <mxPoint x="610" y="140" />
            </Array>
          </mxGeometry>
        </mxCell>
        <mxCell id="vxsvwbx6QRZhMMIfGSdD-55" style="edgeStyle=orthogonalEdgeStyle;rounded=0;orthogonalLoop=1;jettySize=auto;html=1;exitX=0.5;exitY=1;exitDx=0;exitDy=0;entryX=0.5;entryY=0;entryDx=0;entryDy=0;fontSize=14;endArrow=block;endFill=0;" edge="1" parent="WIyWlLk6GJQsqaUBKTNV-1" source="vxsvwbx6QRZhMMIfGSdD-8" target="vxsvwbx6QRZhMMIfGSdD-18">
          <mxGeometry relative="1" as="geometry" />
        </mxCell>
        <mxCell id="vxsvwbx6QRZhMMIfGSdD-8" value="메인 홈페이지" style="rounded=1;whiteSpace=wrap;html=1;fontSize=14;glass=0;strokeWidth=1;shadow=0;" vertex="1" parent="WIyWlLk6GJQsqaUBKTNV-1">
          <mxGeometry x="160" y="80" width="120" height="40" as="geometry" />
        </mxCell>
        <mxCell id="vxsvwbx6QRZhMMIfGSdD-62" style="edgeStyle=orthogonalEdgeStyle;rounded=0;orthogonalLoop=1;jettySize=auto;html=1;exitX=0.5;exitY=1;exitDx=0;exitDy=0;entryX=0.5;entryY=0;entryDx=0;entryDy=0;fontSize=14;endArrow=block;endFill=0;" edge="1" parent="WIyWlLk6GJQsqaUBKTNV-1" source="vxsvwbx6QRZhMMIfGSdD-11" target="vxsvwbx6QRZhMMIfGSdD-58">
          <mxGeometry relative="1" as="geometry" />
        </mxCell>
        <mxCell id="vxsvwbx6QRZhMMIfGSdD-11" value="카페 상세 페이지" style="rounded=1;whiteSpace=wrap;html=1;fontSize=14;glass=0;strokeWidth=1;shadow=0;" vertex="1" parent="WIyWlLk6GJQsqaUBKTNV-1">
          <mxGeometry x="160" y="300" width="120" height="40" as="geometry" />
        </mxCell>
        <mxCell id="vxsvwbx6QRZhMMIfGSdD-57" style="edgeStyle=orthogonalEdgeStyle;rounded=0;orthogonalLoop=1;jettySize=auto;html=1;exitX=0.5;exitY=1;exitDx=0;exitDy=0;entryX=0.5;entryY=0;entryDx=0;entryDy=0;fontSize=14;endArrow=block;endFill=0;" edge="1" parent="WIyWlLk6GJQsqaUBKTNV-1" source="vxsvwbx6QRZhMMIfGSdD-12" target="vxsvwbx6QRZhMMIfGSdD-11">
          <mxGeometry relative="1" as="geometry" />
        </mxCell>
        <mxCell id="vxsvwbx6QRZhMMIfGSdD-12" value="카페 페이지" style="rounded=1;whiteSpace=wrap;html=1;fontSize=14;glass=0;strokeWidth=1;shadow=0;" vertex="1" parent="WIyWlLk6GJQsqaUBKTNV-1">
          <mxGeometry x="160" y="170" width="120" height="40" as="geometry" />
        </mxCell>
        <mxCell id="vxsvwbx6QRZhMMIfGSdD-80" style="edgeStyle=orthogonalEdgeStyle;rounded=0;orthogonalLoop=1;jettySize=auto;html=1;exitX=0.5;exitY=0;exitDx=0;exitDy=0;entryX=1;entryY=0.5;entryDx=0;entryDy=0;fontSize=14;endArrow=block;endFill=0;" edge="1" parent="WIyWlLk6GJQsqaUBKTNV-1" source="vxsvwbx6QRZhMMIfGSdD-17" target="vxsvwbx6QRZhMMIfGSdD-18">
          <mxGeometry relative="1" as="geometry" />
        </mxCell>
        <mxCell id="vxsvwbx6QRZhMMIfGSdD-17" value="회원가입 페이지" style="rounded=1;whiteSpace=wrap;html=1;fontSize=14;glass=0;strokeWidth=1;shadow=0;" vertex="1" parent="WIyWlLk6GJQsqaUBKTNV-1">
          <mxGeometry x="1400" y="290" width="120" height="40" as="geometry" />
        </mxCell>
        <mxCell id="vxsvwbx6QRZhMMIfGSdD-52" style="edgeStyle=orthogonalEdgeStyle;rounded=0;orthogonalLoop=1;jettySize=auto;html=1;exitX=0.5;exitY=1;exitDx=0;exitDy=0;entryX=0.5;entryY=0;entryDx=0;entryDy=0;fontSize=14;endArrow=block;endFill=0;" edge="1" parent="WIyWlLk6GJQsqaUBKTNV-1" source="vxsvwbx6QRZhMMIfGSdD-18" target="vxsvwbx6QRZhMMIfGSdD-51">
          <mxGeometry relative="1" as="geometry" />
        </mxCell>
        <mxCell id="vxsvwbx6QRZhMMIfGSdD-18" value="로그인 페이지" style="rounded=1;whiteSpace=wrap;html=1;fontSize=14;glass=0;strokeWidth=1;shadow=0;" vertex="1" parent="WIyWlLk6GJQsqaUBKTNV-1">
          <mxGeometry x="1210" y="160" width="120" height="40" as="geometry" />
        </mxCell>
        <mxCell id="vxsvwbx6QRZhMMIfGSdD-38" style="edgeStyle=orthogonalEdgeStyle;rounded=0;orthogonalLoop=1;jettySize=auto;html=1;exitX=0.5;exitY=1;exitDx=0;exitDy=0;entryX=0.5;entryY=0;entryDx=0;entryDy=0;fontSize=14;endArrow=block;endFill=0;" edge="1" parent="WIyWlLk6GJQsqaUBKTNV-1" source="vxsvwbx6QRZhMMIfGSdD-19" target="vxsvwbx6QRZhMMIfGSdD-32">
          <mxGeometry relative="1" as="geometry" />
        </mxCell>
        <mxCell id="vxsvwbx6QRZhMMIfGSdD-88" style="edgeStyle=orthogonalEdgeStyle;rounded=0;orthogonalLoop=1;jettySize=auto;html=1;exitX=1;exitY=0.5;exitDx=0;exitDy=0;entryX=0.5;entryY=0;entryDx=0;entryDy=0;fontSize=14;endArrow=block;endFill=0;" edge="1" parent="WIyWlLk6GJQsqaUBKTNV-1" source="vxsvwbx6QRZhMMIfGSdD-19" target="vxsvwbx6QRZhMMIfGSdD-87">
          <mxGeometry relative="1" as="geometry" />
        </mxCell>
        <mxCell id="vxsvwbx6QRZhMMIfGSdD-19" value="게시판" style="rounded=1;whiteSpace=wrap;html=1;fontSize=14;glass=0;strokeWidth=1;shadow=0;" vertex="1" parent="WIyWlLk6GJQsqaUBKTNV-1">
          <mxGeometry x="550" y="180" width="120" height="40" as="geometry" />
        </mxCell>
        <mxCell id="vxsvwbx6QRZhMMIfGSdD-49" style="edgeStyle=orthogonalEdgeStyle;rounded=0;orthogonalLoop=1;jettySize=auto;html=1;exitX=0.5;exitY=1;exitDx=0;exitDy=0;entryX=0.5;entryY=0;entryDx=0;entryDy=0;fontSize=14;endArrow=none;endFill=0;" edge="1" parent="WIyWlLk6GJQsqaUBKTNV-1" source="vxsvwbx6QRZhMMIfGSdD-32" target="vxsvwbx6QRZhMMIfGSdD-43">
          <mxGeometry relative="1" as="geometry" />
        </mxCell>
        <mxCell id="vxsvwbx6QRZhMMIfGSdD-32" value="게시판 등록" style="rounded=1;whiteSpace=wrap;html=1;fontSize=14;glass=0;strokeWidth=1;shadow=0;" vertex="1" parent="WIyWlLk6GJQsqaUBKTNV-1">
          <mxGeometry x="550" y="290" width="120" height="40" as="geometry" />
        </mxCell>
        <mxCell id="vxsvwbx6QRZhMMIfGSdD-95" style="edgeStyle=orthogonalEdgeStyle;rounded=0;orthogonalLoop=1;jettySize=auto;html=1;exitX=0.5;exitY=1;exitDx=0;exitDy=0;fontSize=14;endArrow=block;endFill=0;" edge="1" parent="WIyWlLk6GJQsqaUBKTNV-1" source="vxsvwbx6QRZhMMIfGSdD-33" target="vxsvwbx6QRZhMMIfGSdD-94">
          <mxGeometry relative="1" as="geometry" />
        </mxCell>
        <mxCell id="vxsvwbx6QRZhMMIfGSdD-33" value="게시판 삭제 기능&lt;br&gt;활성화" style="rounded=1;whiteSpace=wrap;html=1;fontSize=14;glass=0;strokeWidth=1;shadow=0;" vertex="1" parent="WIyWlLk6GJQsqaUBKTNV-1">
          <mxGeometry x="840" y="361" width="120" height="40" as="geometry" />
        </mxCell>
        <mxCell id="vxsvwbx6QRZhMMIfGSdD-41" style="edgeStyle=orthogonalEdgeStyle;rounded=0;orthogonalLoop=1;jettySize=auto;html=1;exitX=1;exitY=0.5;exitDx=0;exitDy=0;entryX=0;entryY=0.5;entryDx=0;entryDy=0;fontSize=14;endArrow=block;endFill=0;" edge="1" parent="WIyWlLk6GJQsqaUBKTNV-1" source="vxsvwbx6QRZhMMIfGSdD-43" target="vxsvwbx6QRZhMMIfGSdD-47">
          <mxGeometry relative="1" as="geometry" />
        </mxCell>
        <mxCell id="vxsvwbx6QRZhMMIfGSdD-67" style="edgeStyle=orthogonalEdgeStyle;rounded=0;orthogonalLoop=1;jettySize=auto;html=1;exitX=0.5;exitY=1;exitDx=0;exitDy=0;entryX=0.5;entryY=0;entryDx=0;entryDy=0;fontSize=14;endArrow=block;endFill=0;" edge="1" parent="WIyWlLk6GJQsqaUBKTNV-1" source="vxsvwbx6QRZhMMIfGSdD-43" target="vxsvwbx6QRZhMMIfGSdD-48">
          <mxGeometry relative="1" as="geometry" />
        </mxCell>
        <mxCell id="vxsvwbx6QRZhMMIfGSdD-43" value="로그인이 &lt;br&gt;되어있나요?" style="rhombus;whiteSpace=wrap;html=1;shadow=0;fontFamily=Helvetica;fontSize=14;align=center;strokeWidth=1;spacing=6;spacingTop=-4;" vertex="1" parent="WIyWlLk6GJQsqaUBKTNV-1">
          <mxGeometry x="560" y="470" width="100" height="80" as="geometry" />
        </mxCell>
        <mxCell id="vxsvwbx6QRZhMMIfGSdD-47" value="로그인 페이지" style="rounded=1;whiteSpace=wrap;html=1;fontSize=14;glass=0;strokeWidth=1;shadow=0;" vertex="1" parent="WIyWlLk6GJQsqaUBKTNV-1">
          <mxGeometry x="720" y="490" width="120" height="40" as="geometry" />
        </mxCell>
        <mxCell id="vxsvwbx6QRZhMMIfGSdD-48" value="게시판 등록" style="rounded=1;whiteSpace=wrap;html=1;fontSize=14;glass=0;strokeWidth=1;shadow=0;" vertex="1" parent="WIyWlLk6GJQsqaUBKTNV-1">
          <mxGeometry x="550" y="705" width="120" height="40" as="geometry" />
        </mxCell>
        <mxCell id="vxsvwbx6QRZhMMIfGSdD-53" style="edgeStyle=orthogonalEdgeStyle;rounded=0;orthogonalLoop=1;jettySize=auto;html=1;exitX=1;exitY=0.5;exitDx=0;exitDy=0;fontSize=14;endArrow=block;endFill=0;" edge="1" parent="WIyWlLk6GJQsqaUBKTNV-1" source="vxsvwbx6QRZhMMIfGSdD-51" target="vxsvwbx6QRZhMMIfGSdD-17">
          <mxGeometry relative="1" as="geometry" />
        </mxCell>
        <mxCell id="vxsvwbx6QRZhMMIfGSdD-75" style="edgeStyle=orthogonalEdgeStyle;rounded=0;orthogonalLoop=1;jettySize=auto;html=1;exitX=0.5;exitY=1;exitDx=0;exitDy=0;entryX=0.5;entryY=0;entryDx=0;entryDy=0;fontSize=14;endArrow=block;endFill=0;" edge="1" parent="WIyWlLk6GJQsqaUBKTNV-1" source="vxsvwbx6QRZhMMIfGSdD-51" target="vxsvwbx6QRZhMMIfGSdD-74">
          <mxGeometry relative="1" as="geometry" />
        </mxCell>
        <mxCell id="vxsvwbx6QRZhMMIfGSdD-51" value="계정이 &lt;br&gt;있나요?" style="rhombus;whiteSpace=wrap;html=1;shadow=0;fontFamily=Helvetica;fontSize=14;align=center;strokeWidth=1;spacing=6;spacingTop=-4;" vertex="1" parent="WIyWlLk6GJQsqaUBKTNV-1">
          <mxGeometry x="1220" y="270" width="100" height="80" as="geometry" />
        </mxCell>
        <mxCell id="vxsvwbx6QRZhMMIfGSdD-63" style="edgeStyle=orthogonalEdgeStyle;rounded=0;orthogonalLoop=1;jettySize=auto;html=1;exitX=0.5;exitY=1;exitDx=0;exitDy=0;entryX=0.5;entryY=0;entryDx=0;entryDy=0;fontSize=14;endArrow=block;endFill=0;" edge="1" parent="WIyWlLk6GJQsqaUBKTNV-1" source="vxsvwbx6QRZhMMIfGSdD-58" target="vxsvwbx6QRZhMMIfGSdD-60">
          <mxGeometry relative="1" as="geometry" />
        </mxCell>
        <mxCell id="vxsvwbx6QRZhMMIfGSdD-58" value="리뷰 쓰기" style="rounded=1;whiteSpace=wrap;html=1;fontSize=14;glass=0;strokeWidth=1;shadow=0;" vertex="1" parent="WIyWlLk6GJQsqaUBKTNV-1">
          <mxGeometry x="160" y="430" width="120" height="40" as="geometry" />
        </mxCell>
        <mxCell id="vxsvwbx6QRZhMMIfGSdD-59" style="edgeStyle=orthogonalEdgeStyle;rounded=0;orthogonalLoop=1;jettySize=auto;html=1;exitX=1;exitY=0.5;exitDx=0;exitDy=0;entryX=0;entryY=0.5;entryDx=0;entryDy=0;fontSize=14;endArrow=block;endFill=0;" edge="1" parent="WIyWlLk6GJQsqaUBKTNV-1" source="vxsvwbx6QRZhMMIfGSdD-60" target="vxsvwbx6QRZhMMIfGSdD-61">
          <mxGeometry relative="1" as="geometry" />
        </mxCell>
        <mxCell id="vxsvwbx6QRZhMMIfGSdD-64" style="edgeStyle=orthogonalEdgeStyle;rounded=0;orthogonalLoop=1;jettySize=auto;html=1;exitX=0.5;exitY=1;exitDx=0;exitDy=0;fontSize=14;endArrow=block;endFill=0;entryX=0.5;entryY=0;entryDx=0;entryDy=0;" edge="1" parent="WIyWlLk6GJQsqaUBKTNV-1" source="vxsvwbx6QRZhMMIfGSdD-60" target="vxsvwbx6QRZhMMIfGSdD-65">
          <mxGeometry relative="1" as="geometry">
            <mxPoint x="220" y="700" as="targetPoint" />
          </mxGeometry>
        </mxCell>
        <mxCell id="vxsvwbx6QRZhMMIfGSdD-60" value="로그인이 &lt;br&gt;되어있나요?" style="rhombus;whiteSpace=wrap;html=1;shadow=0;fontFamily=Helvetica;fontSize=14;align=center;strokeWidth=1;spacing=6;spacingTop=-4;" vertex="1" parent="WIyWlLk6GJQsqaUBKTNV-1">
          <mxGeometry x="170" y="540" width="100" height="80" as="geometry" />
        </mxCell>
        <mxCell id="vxsvwbx6QRZhMMIfGSdD-66" style="edgeStyle=orthogonalEdgeStyle;rounded=0;orthogonalLoop=1;jettySize=auto;html=1;exitX=0.5;exitY=0;exitDx=0;exitDy=0;fontSize=14;endArrow=block;endFill=0;entryX=1;entryY=0.5;entryDx=0;entryDy=0;" edge="1" parent="WIyWlLk6GJQsqaUBKTNV-1" source="vxsvwbx6QRZhMMIfGSdD-61" target="vxsvwbx6QRZhMMIfGSdD-58">
          <mxGeometry relative="1" as="geometry">
            <mxPoint x="400" y="440" as="targetPoint" />
          </mxGeometry>
        </mxCell>
        <mxCell id="vxsvwbx6QRZhMMIfGSdD-61" value="로그인 페이지" style="rounded=1;whiteSpace=wrap;html=1;fontSize=14;glass=0;strokeWidth=1;shadow=0;" vertex="1" parent="WIyWlLk6GJQsqaUBKTNV-1">
          <mxGeometry x="340" y="560" width="120" height="40" as="geometry" />
        </mxCell>
        <mxCell id="vxsvwbx6QRZhMMIfGSdD-65" value="리뷰 등록" style="rounded=1;whiteSpace=wrap;html=1;fontSize=14;glass=0;strokeWidth=1;shadow=0;" vertex="1" parent="WIyWlLk6GJQsqaUBKTNV-1">
          <mxGeometry x="160" y="695" width="120" height="40" as="geometry" />
        </mxCell>
        <mxCell id="vxsvwbx6QRZhMMIfGSdD-76" style="edgeStyle=orthogonalEdgeStyle;rounded=0;orthogonalLoop=1;jettySize=auto;html=1;exitX=0.5;exitY=1;exitDx=0;exitDy=0;fontSize=14;endArrow=block;endFill=0;entryX=0;entryY=0.5;entryDx=0;entryDy=0;" edge="1" parent="WIyWlLk6GJQsqaUBKTNV-1" source="vxsvwbx6QRZhMMIfGSdD-74" target="vxsvwbx6QRZhMMIfGSdD-8">
          <mxGeometry relative="1" as="geometry">
            <mxPoint x="1200" y="810" as="targetPoint" />
            <Array as="points">
              <mxPoint x="1270" y="830" />
              <mxPoint x="50" y="830" />
              <mxPoint x="50" y="100" />
            </Array>
          </mxGeometry>
        </mxCell>
        <mxCell id="vxsvwbx6QRZhMMIfGSdD-82" style="edgeStyle=orthogonalEdgeStyle;rounded=0;orthogonalLoop=1;jettySize=auto;html=1;exitX=1;exitY=0.5;exitDx=0;exitDy=0;fontSize=14;endArrow=block;endFill=0;" edge="1" parent="WIyWlLk6GJQsqaUBKTNV-1" source="vxsvwbx6QRZhMMIfGSdD-74" target="vxsvwbx6QRZhMMIfGSdD-78">
          <mxGeometry relative="1" as="geometry" />
        </mxCell>
        <mxCell id="vxsvwbx6QRZhMMIfGSdD-74" value="관리자 계정인가요?" style="rhombus;whiteSpace=wrap;html=1;shadow=0;fontFamily=Helvetica;fontSize=14;align=center;strokeWidth=1;spacing=6;spacingTop=-4;" vertex="1" parent="WIyWlLk6GJQsqaUBKTNV-1">
          <mxGeometry x="1220" y="460" width="100" height="80" as="geometry" />
        </mxCell>
        <mxCell id="vxsvwbx6QRZhMMIfGSdD-78" value="카페 등록 &lt;br&gt;페이지 활성화" style="rounded=1;whiteSpace=wrap;html=1;fontSize=14;glass=0;strokeWidth=1;shadow=0;" vertex="1" parent="WIyWlLk6GJQsqaUBKTNV-1">
          <mxGeometry x="1400" y="545" width="120" height="40" as="geometry" />
        </mxCell>
        <mxCell id="vxsvwbx6QRZhMMIfGSdD-90" style="edgeStyle=orthogonalEdgeStyle;rounded=0;orthogonalLoop=1;jettySize=auto;html=1;exitX=0.5;exitY=1;exitDx=0;exitDy=0;entryX=0.5;entryY=0;entryDx=0;entryDy=0;fontSize=14;endArrow=block;endFill=0;" edge="1" parent="WIyWlLk6GJQsqaUBKTNV-1" source="vxsvwbx6QRZhMMIfGSdD-87" target="vxsvwbx6QRZhMMIfGSdD-33">
          <mxGeometry relative="1" as="geometry" />
        </mxCell>
        <mxCell id="vxsvwbx6QRZhMMIfGSdD-92" style="edgeStyle=orthogonalEdgeStyle;rounded=0;orthogonalLoop=1;jettySize=auto;html=1;exitX=0.5;exitY=1;exitDx=0;exitDy=0;fontSize=14;endArrow=block;endFill=0;" edge="1" parent="WIyWlLk6GJQsqaUBKTNV-1" source="vxsvwbx6QRZhMMIfGSdD-87">
          <mxGeometry relative="1" as="geometry">
            <mxPoint x="1083" y="360" as="targetPoint" />
          </mxGeometry>
        </mxCell>
        <mxCell id="vxsvwbx6QRZhMMIfGSdD-87" value="게시판을 &lt;br&gt;등록한 &lt;br&gt;유저인가요?" style="rhombus;whiteSpace=wrap;html=1;shadow=0;fontFamily=Helvetica;fontSize=14;align=center;strokeWidth=1;spacing=6;spacingTop=-4;" vertex="1" parent="WIyWlLk6GJQsqaUBKTNV-1">
          <mxGeometry x="850" y="239" width="100" height="80" as="geometry" />
        </mxCell>
        <mxCell id="vxsvwbx6QRZhMMIfGSdD-96" style="edgeStyle=orthogonalEdgeStyle;rounded=0;orthogonalLoop=1;jettySize=auto;html=1;exitX=0.5;exitY=1;exitDx=0;exitDy=0;fontSize=14;endArrow=block;endFill=0;" edge="1" parent="WIyWlLk6GJQsqaUBKTNV-1" source="vxsvwbx6QRZhMMIfGSdD-91">
          <mxGeometry relative="1" as="geometry">
            <mxPoint x="993" y="480" as="targetPoint" />
          </mxGeometry>
        </mxCell>
        <mxCell id="vxsvwbx6QRZhMMIfGSdD-91" value="게시판 수정기능&lt;br&gt;활성화" style="rounded=1;whiteSpace=wrap;html=1;fontSize=14;glass=0;strokeWidth=1;shadow=0;" vertex="1" parent="WIyWlLk6GJQsqaUBKTNV-1">
          <mxGeometry x="1023" y="362" width="120" height="40" as="geometry" />
        </mxCell>
        <mxCell id="vxsvwbx6QRZhMMIfGSdD-98" style="edgeStyle=orthogonalEdgeStyle;rounded=0;orthogonalLoop=1;jettySize=auto;html=1;exitX=0.5;exitY=1;exitDx=0;exitDy=0;entryX=0;entryY=0.5;entryDx=0;entryDy=0;fontSize=14;endArrow=block;endFill=0;" edge="1" parent="WIyWlLk6GJQsqaUBKTNV-1" source="vxsvwbx6QRZhMMIfGSdD-94" target="vxsvwbx6QRZhMMIfGSdD-19">
          <mxGeometry relative="1" as="geometry">
            <Array as="points">
              <mxPoint x="993" y="790" />
              <mxPoint x="490" y="790" />
              <mxPoint x="490" y="200" />
            </Array>
          </mxGeometry>
        </mxCell>
        <mxCell id="vxsvwbx6QRZhMMIfGSdD-94" value="게시판을 &lt;br&gt;수정,삭제 &lt;br&gt;하나요?" style="rhombus;whiteSpace=wrap;html=1;shadow=0;fontFamily=Helvetica;fontSize=14;align=center;strokeWidth=1;spacing=6;spacingTop=-4;" vertex="1" parent="WIyWlLk6GJQsqaUBKTNV-1">
          <mxGeometry x="943" y="480" width="100" height="80" as="geometry" />
        </mxCell>
        <mxCell id="vxsvwbx6QRZhMMIfGSdD-99" value="Yes" style="text;html=1;strokeColor=none;fillColor=none;align=center;verticalAlign=middle;whiteSpace=wrap;rounded=0;fontSize=14;" vertex="1" parent="WIyWlLk6GJQsqaUBKTNV-1">
          <mxGeometry x="150" y="630" width="60" height="30" as="geometry" />
        </mxCell>
        <mxCell id="vxsvwbx6QRZhMMIfGSdD-100" value="No" style="text;html=1;strokeColor=none;fillColor=none;align=center;verticalAlign=middle;whiteSpace=wrap;rounded=0;fontSize=14;" vertex="1" parent="WIyWlLk6GJQsqaUBKTNV-1">
          <mxGeometry x="270" y="545" width="60" height="30" as="geometry" />
        </mxCell>
        <mxCell id="vxsvwbx6QRZhMMIfGSdD-102" value="No" style="text;html=1;strokeColor=none;fillColor=none;align=center;verticalAlign=middle;whiteSpace=wrap;rounded=0;fontSize=14;" vertex="1" parent="WIyWlLk6GJQsqaUBKTNV-1">
          <mxGeometry x="650" y="480" width="60" height="30" as="geometry" />
        </mxCell>
        <mxCell id="vxsvwbx6QRZhMMIfGSdD-104" value="Yes" style="text;html=1;strokeColor=none;fillColor=none;align=center;verticalAlign=middle;whiteSpace=wrap;rounded=0;fontSize=14;" vertex="1" parent="WIyWlLk6GJQsqaUBKTNV-1">
          <mxGeometry x="900" y="310" width="60" height="30" as="geometry" />
        </mxCell>
        <mxCell id="vxsvwbx6QRZhMMIfGSdD-105" value="Yes" style="text;html=1;strokeColor=none;fillColor=none;align=center;verticalAlign=middle;whiteSpace=wrap;rounded=0;fontSize=14;" vertex="1" parent="WIyWlLk6GJQsqaUBKTNV-1">
          <mxGeometry x="990" y="560" width="60" height="30" as="geometry" />
        </mxCell>
        <mxCell id="vxsvwbx6QRZhMMIfGSdD-106" value="Yes" style="text;html=1;strokeColor=none;fillColor=none;align=center;verticalAlign=middle;whiteSpace=wrap;rounded=0;fontSize=14;" vertex="1" parent="WIyWlLk6GJQsqaUBKTNV-1">
          <mxGeometry x="610" y="550" width="60" height="30" as="geometry" />
        </mxCell>
        <mxCell id="vxsvwbx6QRZhMMIfGSdD-107" value="Yes" style="text;html=1;strokeColor=none;fillColor=none;align=center;verticalAlign=middle;whiteSpace=wrap;rounded=0;fontSize=14;" vertex="1" parent="WIyWlLk6GJQsqaUBKTNV-1">
          <mxGeometry x="1320" y="470" width="60" height="30" as="geometry" />
        </mxCell>
        <mxCell id="vxsvwbx6QRZhMMIfGSdD-108" value="Yes" style="text;html=1;strokeColor=none;fillColor=none;align=center;verticalAlign=middle;whiteSpace=wrap;rounded=0;fontSize=14;" vertex="1" parent="WIyWlLk6GJQsqaUBKTNV-1">
          <mxGeometry x="1220" y="350" width="60" height="30" as="geometry" />
        </mxCell>
        <mxCell id="vxsvwbx6QRZhMMIfGSdD-109" value="No" style="text;html=1;strokeColor=none;fillColor=none;align=center;verticalAlign=middle;whiteSpace=wrap;rounded=0;fontSize=14;" vertex="1" parent="WIyWlLk6GJQsqaUBKTNV-1">
          <mxGeometry x="1310" y="280" width="60" height="30" as="geometry" />
        </mxCell>
        <mxCell id="vxsvwbx6QRZhMMIfGSdD-111" value="No" style="text;html=1;strokeColor=none;fillColor=none;align=center;verticalAlign=middle;whiteSpace=wrap;rounded=0;fontSize=14;" vertex="1" parent="WIyWlLk6GJQsqaUBKTNV-1">
          <mxGeometry x="1210" y="540" width="60" height="30" as="geometry" />
        </mxCell>
      </root>
    </mxGraphModel>
  </diagram>
</mxfile>
